<?xml version="1.0" encoding="utf-8"?>
<svg xmlns="http://www.w3.org/2000/svg"
     viewBox="180 180 600 620"
     xml:space="preserve">

  <!--
    NaruNaru favicon
    Two characters as one set (relationship-first design)
    Background: transparent
  -->

  <style>
    .st1{fill:#201413;}
    .st2{fill:#FFFFFD;}
    .st3{fill:#E95F96;}
    .st4{fill:#FFFEFD;}
    .st5{fill:#E4394D;}
    .st6{fill:#FEFEFD;}
    .st7{fill:#FDFDFB;}
    .st8{fill:#EF9093;}
    .st9{fill:#FBFBFA;}
    .st10{fill:#DA6C9F;}
    .st11{fill:#E99FA1;}
    .st12{fill:#F08D8F;}
    .st13{fill:#1F1413;}
    .st14{fill:#EF8C8E;}
    .st15{fill:#EF8F92;}
  </style>

  <!--
    ↓ ここ以下は、kutaF_ChatGPT.svg の
    背景削除後の <g id="XMLID_113_"> … </g>
    をそのまま貼り付けたもの
  -->

  <!-- 省略せず、元SVGの <g id="XMLID_113_"> 以下をそのまま配置 -->
  <!-- ※あなたの現行ファイルを使う場合は、この位置に
         XMLID_214_ を除いた全パス群を入れてください -->

<path id="XMLID_200_" class="st1" d="M456.3,579.2c17.4,22.8,32.8,46.5,45.4,72c5.8,12,10,24.5,9.8,38c-0.4,16-8.1,28-20.8,36.9
			c-2.7,1.9-2.7,3.3-1.7,6c3.9,9.3,7.1,18.5,8.5,28.6c2.1,14.5-3.7,24.9-15.4,32.6c-11.6,7.7-24.3,10.2-38,9.3c-5-0.4-5.8,1.4-6,6
			c-1.4,22-6,43-20.1,60.8c-11.2,14.1-24.9,23.5-43.4,25.3c-19.3,1.7-36.5-2.5-50.6-16.6c-3.3-3.3-5.8-7.1-7.5-12.4
			c-4.6,8.5-10,15.2-18,20.1c-27.2,16.2-62.5,12.2-83.8-14.5c-11.6-14.3-17.8-30.7-20.1-48.8c-0.8-5.4-1.9-10.8-1.7-16.2
			c0.2-3.3-1.2-3.9-4.1-3.7c-11.8,0.8-23.2-1.2-33.6-6.6c-9.5-4.8-16.8-12-19.1-22.6c-1.9-8.5-0.6-17,1.9-25.1
			c1.7-5.4,3.3-10.8,5.4-16c0.8-2.1,0.6-2.7-1.4-3.9c-20.5-11.8-28.6-32.2-22.8-55.6c4.6-18.3,14.1-34.2,23.5-50.2
			c9.1-15.2,19.1-29.9,29.9-44.2c-10.4-5.6-20.8-11.2-30.5-18.1c-29.1-20.7-46.1-49.2-53.5-83.8c-3.7-17.2-4.6-34.5-2.7-51.9
			c2.5-23.5,8.5-46.1,18.3-67.7c1-2.3,1.2-3.1-1.4-4.2c-10.4-4.6-16.4-13.3-21-23.2c-8.7-18.5-11.4-37.6-6.6-57.5
			c4.1-16.2,18.1-24.5,32.2-27.2c14.1-2.7,27,1.2,40.7,6.8c0-5.8,0-11.4,0-16.8c0.2-40.3,5.4-80.1,18-118.7
			c5.2-16,12-31.5,24.1-43.6c12.9-12.9,28.6-19.3,46.9-19.7c15.6-0.2,30.1,2.5,42.7,12.5c10.4,8.3,17,19.5,22,31.7
			c6.6,15.6,9.7,32,12.4,48.4c0.6,3.5,0.2,7.1,1.7,11.4c1.9-9.1,3.5-17.4,5.6-25.7c4.8-19.3,10.4-38.2,22.8-54.2
			c13.5-17.6,31.7-25.5,53.7-24.5c31.7,1.5,49.4,21.2,62,47.3c9.5,19.5,14.1,40.3,18,61.6c6.4,35.3,7.1,71,6.2,106.9
			c-0.2,7.3,0,14.7-1.5,21.8c-0.6,2.5-0.2,4.8,1.9,7.1c30.1,30.7,48.8,67.6,56.6,109.6c6.8,36.9,4.4,73.2-13.7,107.3
			c-15.6,29.3-39.8,49.6-69.3,64.1C458.2,578.2,457.4,578.6,456.3,579.2z M345.7,807.3L345.7,807.3c0.4-0.2,0.8-0.4,1.2-0.6l0,0
			c0.6-0.4,1.2-1,1.5-1.4l0,0c0.4-0.4,0.8-0.6,1.2-1c1.4-1,2.9-1.9,4.1-3.1c2.1-2.1,4.2-2.1,6.6-0.2c12,10.6,26.1,12.4,40.9,9.7
			c11.4-2.1,20.7-7.3,25.5-18.5c1.5-3.9,4.1-3.7,7.5-2.9c15.4,4.2,30.1,2.7,43.4-6.6c7.7-5.4,10.8-12.9,9.1-22.4
			c-1.4-7.1-3.9-13.9-6.6-20.7c-10.4-25.5-23.4-49.8-33.6-75.3c-6.2-15.6-12-31.5-14.1-48.3c-1.2-8.9-1.7-18-1.5-27.2
			c-12.2,3.5-24.1,6-36.1,8.3c-1.7,0.4-2.9,0.6-3.3,2.5c-1.7,11.2-8.7,18.5-18.3,23.7c-1.9,1-3.1,2.1-3.9,4.2
			c-5,13.1-16.8,19.1-30.1,15.4c-1.7-0.4-2.9-0.6-4.4,1c-9.8,8.9-24.3,9.3-34.4,0.8c-2.3-1.9-4.1-2.1-6.4-1.5
			c-13.1,3.1-24.1-2.7-29-15.4c-0.6-1.5-1.2-2.7-3.1-3.7c-10.8-4.4-17.6-12.5-20.1-23.9c-0.4-2.1-1.2-2.9-3.1-3.1
			c-11-1.2-21.6-4.1-32.2-6.9c-4.2-1.2-4.2,0.2-4.2,3.5c0.4,12.7-1.2,25.5-4.4,37.8c-5.8,22.2-15.4,42.8-25.1,63.7
			c-8.9,19.1-18.3,37.8-24.5,57.9c-4.2,13.9-1.5,23.7,8.7,30.5c12.9,8.5,27,9.7,41.5,5.6c4.2-1.2,6.8-0.6,8.3,3.7
			c1.5,4.1,4.2,7.5,7.7,10.4c14.5,11.8,42.7,11.2,56.7-1.4c3.3-2.9,5.8-3.1,8.7,0c1.7,1.7,3.7,3.3,6,4.2c0.8,1,1.7,1.7,3.1,1.9l0,0
			c0.4,1,1.2,1,1.9,1.2l0,0c0.6,0.4,1.4,0.6,1.9,1l0,0c0.4,1,1.4,0.8,1.9,1l0,0c17,7.1,33.8,6.8,49.8-2.9l0,0
			C345.1,807.9,345.3,807.5,345.7,807.3z M255.2,191.8c-0.4-0.6-0.8-1.2-1.2-1.7c-5.4-5.8-12.2-6.2-18.1-1.2
			c-3.9,3.3-6.8,7.3-8.3,12.2c-4.4,13.9-5.8,28.4-5.6,43.4c10-7.5,20.1-14.1,31.8-17.2c7.9-1.7,7.7-1.7,6.8-9.7
			c-0.2-1.5,0-3.1-0.2-4.6C259.2,205.7,259.6,198.2,255.2,191.8L255.2,191.8z M320,590.8c20.5-0.6,44.2-1.4,67.9-5.2
			c22.4-3.7,44-9.1,64.5-18.7c28-13.1,51-32,65.2-60c16.8-32.6,18.1-67.2,10.8-102.3c-8.1-39.8-27-73.7-56-102.3
			c-2.5-2.5-2.9-5-2.5-7.9c1.2-11,1.7-22,1.9-33.2c0.6-38.8-0.6-77.4-9.5-115.4c-4.4-18.9-10-37.4-20.8-54
			c-14.9-22.8-38.6-31.8-62.7-23.9c-17.6,5.8-27.6,19.1-34.4,35.5c-13.3,31.8-17,65.8-19.5,99.6c-1.5,19.1-2.5,38.2-1.7,57.5
			c0,0.4,0,1,0,1.4c-0.4,3.3-2.1,5-5.4,5.4c-3.5,0.4-6.2-1-6.9-4.6c-0.6-3.3-0.8-6.8-0.8-10.2c-0.4-12.4-0.6-24.7-1.4-36.9
			c-1.4-22.8-2.7-45.6-6.4-68.1c-2.7-17.2-6.6-34-14.1-49.6C275.2,70.4,255,62.1,227,67.1C209,70.4,196.7,82,188.4,98
			c-13.7,26.8-19.1,55.8-23.5,85.1c-1.9,13.1-2.7,26.3-3.3,39.6c-0.4,11-0.4,21.8-0.4,32.8c0,4.1,4.6,6.4,8.1,4.4
			c10.8-6.2,22.8-8.3,34.9-7.1c4.1,0.4,4.2-0.8,4.2-4.1c0.2-10.8,0.2-21.8,2.1-32.6c2.1-11.4,4.8-22.4,11.8-31.8
			c6.4-8.7,14.9-12.9,25.9-11c12.7,2.1,19.1,11.2,22.2,22.8c2.3,8.5,2.7,17.6,3.5,26.3c0.2,2.1,0.8,3.3,3.1,3.5
			c11.6,1,18.7,7.7,23.5,17.8c8.7,18.1,11.2,37.3,7.9,57.1c-1.4,8.3-3.7,16.4-9.7,22.8c-10,10.6-23,11.4-36.3,9.7
			c-14.1-1.7-26.6-7.7-38.6-14.9c-1.7-1-2.9-1.5-4.8-0.4c-14.1,7.9-29,9.5-44.4,5c-2.5-0.8-3.7-0.2-5.2,1.4
			c-2.7,2.7-5.6,5.4-8.7,7.9c-12,9.8-24.3,19.3-40,22.4c-1.7,0.4-2.7,1.7-3.5,3.5c-18.1,38.6-25.1,78.6-15.6,120.6
			c5.8,26.1,19.1,48.1,39.6,65.2c24.7,21,54.2,32.2,85.5,39C256.7,588.8,286.8,590.2,320,590.8z M205.9,812c0.4,9.8,1.9,19.3,5,28.2
			c10.2,28.6,31.8,49,65.4,42.1c15.6-3.3,27.2-11.6,31.5-27.8c2.1-7.9,2.1-16,3.1-23.9c0.4-3.3-1.7-3.1-3.7-3.3
			c-8.7-0.8-17.2-3.1-24.3-8.1c-5.4-4.1-9.1-3.3-15.1-0.6C246.5,828,225.8,825.1,205.9,812z M425.8,812.5
			c-18.5,13.7-47.9,16-67.2,2.7c-1.5-1.2-2.3-0.4-3.5,0.4c-6,4.6-12.7,8.1-20.3,9.8c-4.4,1.2-9.1,1.7-13.5,2.5
			c0.6,6,1,11.6,1.5,17.4c1.4,13.9,6.8,25.3,19.7,32c12.2,6.4,25.1,7.5,38.2,4.1c17.2-4.8,28-17,35.5-32.4
			C422.3,837.6,424.4,825.3,425.8,812.5z M85.9,291.6c0.2,13.5,3.3,27.6,12,40.3c6.9,10.2,15.1,12.9,26.6,8.9
			c15.4-5.2,27.2-16,38.4-27.2c0.8-0.8,0.6-1.4,0.2-2.3c-2.9-6.9-4.8-14.9-15.2-12.9c-0.8,0.2-1.5-0.4-2.3-0.6
			c-3.3-0.8-4.4-3.1-4.1-6.4c0.4-3.3,2.3-5,5.6-4.8c2.1,0,4.4,0.2,6.6,0.6c2.1,0.4,3.3,0.4,3.1-2.3c-0.4-4.4-0.2-8.7,1.2-12.9
			c0.6-1.9-0.4-2.5-1.5-3.3c-14.1-9.5-29.3-14.1-46.3-12c-6.4,0.8-12.2,3.5-16.8,8.3C86.5,272.3,85.9,281,85.9,291.6z M297.1,287.9
			c-0.2-15.8-1.5-28-7.5-39.4c-4.2-7.9-10.6-11.6-19.3-11.2c-18,0.6-32.2,9.5-45,21.2c-1.4,1.4-1.9,2.3-0.2,3.7
			c2.5,2.1,4.2,5.2,4.8,8.3c1.2,5.4,3.1,7.5,8.7,4.2c2.9-1.7,6-0.2,7.3,3.1c1.2,3.1,0.6,6.2-3.1,7.7c-2.3,1.2-4.8,1.9-7.3,3.1
			c-1.2,0.6-2.5,0.8-2.7,2.7c0,4.6-1.2,9.3-3.1,13.5c-0.8,1.5-0.4,2.3,1,2.9c13.7,7.7,27.8,14.1,44,13.3c11-0.6,17-5.6,19.9-16.2
			C296.7,298.2,297.2,291.4,297.1,287.9z M191.1,592.1c0-1,0-1.9,0-2.9c-0.2-1.5,0.8-3.5-1.9-4.4c-2.5-1-3.7,0-5.2,1.5
			c-13.5,13.7-23.2,30.3-32.8,46.7c-8.7,14.5-17.2,29.1-20.7,46.1c-2.9,14.7,3.1,29.9,15.4,37.1c2.5,1.5,3.7,1.5,5-1.5
			c6-13.3,12.2-26.6,18.1-40C181,648.5,191.5,621.6,191.1,592.1z M482.9,716.6c8.3-5.2,13.3-12.2,15.4-21.2
			c2.5-10.6-0.4-20.7-4.2-30.3C483.5,640,469,617.2,453,595.4c-2.9-3.9-6-7.7-10.8-10.8c0.4,17,1.5,33.2,6.2,49
			C456.9,662.4,470.6,689,482.9,716.6z M190.7,311.7c6.4,0.6,12.4-0.8,18.3-2.7c6.9-2.1,10.4-6.9,11.2-14.1
			c0.8-6.2,0.2-12.2-1.2-18.1c-1.4-6.2-5.2-10.6-11.2-11.8c-11.6-2.3-22.8-0.2-33.4,5.4c-3.5,1.9-5,4.6-5,8.7c0,5.6,0,11.2,1.2,16.8
			c1.7,9.5,5.6,14.5,12.4,15.6C185.3,312,188,311.7,190.7,311.7z M253.4,599.6c2.1,8.3,7.9,12.7,15.2,15.1c3.5,1.2,5,3.1,5.8,6.4
			c2.7,11.2,11.2,15.1,21.6,9.8c5.2-2.5,6.2-2.3,9.3,2.5c5.4,8.3,18,8.7,23.7,0.8c4.1-6,4.1-6,10.6-2.9c9.3,4.2,17.6,0.6,20.1-9.3
			c1-4.2,3.1-6.6,7.1-8.1c6.6-2.5,11-7.1,13.1-14.1c-8.7,0.8-17,1.9-25.3,2.3c-3.1,0.2-4.4,1.2-6,3.9c-6.6,12-17,18.1-30.7,18.1
			c-13.7,0-24.5-5.8-31.3-18.1c-1.4-2.5-2.7-3.5-5.6-3.7C272,602,262.9,600.6,253.4,599.6z M337.2,603.1c-6.8,0-13.1,0-19.7,0
			c-6.4,0-12.7,0-19.7,0C309.8,615.3,327.5,615.1,337.2,603.1z"/>
		<path id="XMLID_190_" class="st1" d="M747,373.8c2.9-8.7,5.2-17.2,8.9-25.1c4.6-9.7,11.2-17.2,21.4-20.8
			c15.6-5.6,34.2,1.2,44.6,16.2c7.9,11.6,12,24.7,14.7,38.4c3.7,18.3,4.1,37.1,4.1,55.8c0,3.1,1,5.2,3.5,7.5
			c19.7,18.9,33.6,41.3,39.2,68.3c4.2,19.7,3.3,39.4-4.6,58.3c-7.3,17.2-19.3,30.5-35.7,39.4c-2.7,1.5-2.7,2.1-0.6,4.4
			c12.9,13.7,23.7,28.8,29.1,47.1c5,17,0.8,32.8-14.3,42.3c-1.5,1-1.9,1.5-1.4,3.7c1.7,4.8,2.9,9.7,4.2,14.5c1.7,6,0.4,8.5-5.4,9.8
			c-9.7,2.3-19.5,4.8-29.1,6.6c-4.2,0.8-5.4,2.5-6,6.8c-3.9,33.6-37.3,44.6-58.3,31.3c-7.3-4.6-11.2-11.2-13.3-22
			c-2.5,13.9-10,23-23.5,26.1c-20.7,4.8-38.2-6-45.2-23.9c-1.2-2.7-2.5-5.6-2.5-8.3c0-6.8-2.7-9.5-9.7-10.4
			c-9.3-1.4-18.3-3.9-27.2-6.9c-5.8-1.9-6.8-3.7-5-9.7c1.4-4.6,2.7-9.5,4.2-14.1c0.6-1.5,0.8-2.5-0.8-3.5
			C619,694,618.6,673,626.9,653.9c6.2-14.3,15.6-26.6,26.1-38.2c0.8-0.8,1.7-1.4,1.9-2.7c-13.9-7.1-25.3-17.4-33.2-31.3
			c-9.3-16.2-12.4-33.8-11.2-52.1c1.9-33.8,17.8-60.6,41.3-83.8c1.9-1.9,2.9-3.7,2.9-6.4c0.2-12.5-0.4-24.9,1.2-37.4
			c2.3-19.9,5.6-39.6,16.8-56.9c7.3-11.2,17.2-18.1,30.7-18.9c14.9-0.8,25.7,6,33,18.9C741.2,353.7,744.3,363.4,747,373.8z
			 M744.8,619.1c31.1,0.2,52.9-2.7,73.3-9.5c42.5-14.1,59.4-45.6,54.4-86.3c-3.5-28.2-18.3-50.8-38.6-69.7
			c-4.4-4.1-6.4-8.3-6.2-14.1c0.4-21.2-0.4-42.7-5.6-63.5c-2.9-11.6-7.3-22.6-16.8-30.9c-11.4-10.2-26.1-8.9-35.3,3.3
			c-5,6.6-7.7,14.5-9.7,22.4c-5.2,20.3-6.2,41.1-6.6,62c-0.2,6.2-1.9,8.5-6.8,8.5c-4.6,0-6.6-2.5-6.4-8.7
			c0.6-14.7-0.2-29.3-2.9-43.6c-2.3-12.9-5.4-25.5-12-37.3c-10-17.8-30.7-17.2-41.9-1.5c-8.5,11.8-12,25.7-14.3,39.8
			c-2.9,17-3.1,34.2-2.7,51.1c0,5-1.9,9.1-5.4,12.4c-21.4,20.3-36.1,43.8-39,73.9c-1.7,18.7,1.4,36.1,11.6,51.9
			c10.2,15.8,25.7,24.3,42.8,30.3C699.5,617.2,722.8,619.3,744.8,619.1z M848.5,723.6c-2.9-9.3-5.6-18-8.5-26.6
			c-7.5-23.2-15.2-46.1-22.8-69.3c-1-3.1-2.3-3.9-5.4-3.1c-4.8,1.4-9.7,2.1-14.5,2.9c-2.5,0.4-4.1,1.5-5.2,3.9
			c-4.4,8.9-9.1,17.8-13.7,26.4c-2.9,5.2-6.8,5.8-10.8,1.4c-6.6-7.3-13.1-14.7-19.7-22c-0.4,0.4-1,0.8-1.4,1.2
			c-6,6.8-12,13.5-18,20.5c-4.4,5-8.5,4.6-11.6-1.2c-3.3-6-6.9-12-9.3-18.1c-3.3-8.1-8.1-12.9-17.2-13.1c-2.5,0-5.2-1-7.5-1.9
			c-2.5-1-3.5-0.4-4.4,2.1c-10.4,31.3-20.8,62.7-31.3,94c-0.8,2.5-0.8,3.5,2.3,4.2c27.8,7.3,56.2,10.4,84.7,11.6
			c15.8,0.6,31.5-0.4,47.1-1.5C803.9,732.6,826.1,729,848.5,723.6z M807.8,742.3c-16,2.1-31.7,4.1-47.3,5c-1.4,0-1.7,0.4-1.9,1.9
			c-0.6,9.3,5.6,18.7,14.1,21.4c7.1,2.1,13.7,1.2,20.1-2.3C802.8,762.5,806.8,753.7,807.8,742.3z M715.3,771.6
			c12.7,0,21.2-8.9,21.4-21.8c0-2.1-0.8-2.5-2.7-2.5c-14.9-1-29.7-1.5-44.4-4.2c-1.7-0.4-2.3,0.2-2.1,1.9
			C690,761,701,771,715.3,771.6z M827.1,619.3c8.1,25.1,16,50.4,24.1,75.7c8.9-7.5,11.2-13.9,9.7-24.5c-2.1-13.5-9.3-24.3-17.6-34.7
			C838.5,629.8,833.6,623.8,827.1,619.3z M643.9,694.8c8.1-25.3,16-50.4,24.1-75.5c-5.2,2.7-8.5,6.9-11.8,10.8
			c-9.3,11.2-17.8,23-21.6,37.4C631.5,679,634.8,689.2,643.9,694.8z M781.5,630.1c-8.5,0.4-16.2,1.5-24.9,1
			c5.2,6.4,9.8,11.8,14.5,17.6C774.6,642.5,777.9,636.7,781.5,630.1z M724,648.7c4.8-6,9.5-11.6,14.5-17.8c-8.5,1-16-1.4-24.1-0.6
			C717.6,636.7,720.7,642.5,724,648.7z"/>
		<path id="XMLID_182_" class="st2" d="M320,590.8c-33.2-0.6-63.3-1.7-92.6-8.1c-31.3-6.8-60.8-18-85.5-39
			c-20.5-17.2-33.6-39.2-39.6-65.2c-9.5-41.9-2.5-82,15.6-120.6c0.8-1.5,1.5-3.1,3.5-3.5c15.6-3.3,28-12.5,40-22.4
			c3.1-2.5,6-5,8.7-7.9c1.5-1.5,2.7-2.1,5.2-1.4c15.4,4.4,30.3,2.9,44.4-5c1.9-1.2,3.1-0.6,4.8,0.4c12,7.1,24.5,13.1,38.6,14.9
			c13.3,1.5,26.3,1,36.3-9.7c6-6.4,8.3-14.5,9.7-22.8c3.1-19.7,0.8-38.8-7.9-57.1c-4.8-10-12-17-23.5-17.8c-2.3-0.2-2.9-1.4-3.1-3.5
			c-0.8-8.9-1.2-17.8-3.5-26.3c-3.3-11.6-9.5-20.7-22.2-22.8c-10.8-1.9-19.5,2.5-25.9,11c-6.9,9.5-9.7,20.5-11.8,31.8
			c-1.9,10.8-1.9,21.6-2.1,32.6c0,3.3-0.4,4.4-4.2,4.1c-12.2-1.2-24.1,0.8-34.9,7.1c-3.5,2.1-8.1-0.2-8.1-4.4c0-11,0-21.8,0.4-32.8
			c0.6-13.1,1.4-26.4,3.3-39.6c4.4-29.3,9.8-58.5,23.5-85.1c8.1-16,20.7-27.6,38.6-30.9c28-5.2,48.3,3.3,61.4,30.5
			c7.5,15.6,11.4,32.4,14.1,49.6c3.7,22.6,4.8,45.4,6.4,68.1c0.8,12.4,0.8,24.7,1.4,36.9c0.2,3.5,0.2,6.9,0.8,10.2
			c0.6,3.7,3.3,5,6.9,4.6c3.3-0.2,5-2.1,5.4-5.4c0-0.4,0.2-1,0-1.4c-0.6-19.1,0.4-38.4,1.7-57.5c2.5-34,6.2-67.7,19.5-99.6
			c6.8-16.4,16.8-29.7,34.4-35.5c24.1-7.9,47.7,1.2,62.7,23.9c10.8,16.6,16.6,35.1,20.8,54c8.9,38,10,76.6,9.5,115.4
			c-0.2,11-0.6,22.2-1.9,33.2c-0.4,3.1,0,5.4,2.5,7.9c28.8,28.6,47.7,62.5,56,102.3c7.3,35.1,6,69.7-10.8,102.3
			c-14.5,28-37.3,46.7-65.2,60c-20.5,9.7-42.3,15.1-64.5,18.7C364.4,589.2,340.5,590.2,320,590.8z M463.8,522.6
			c23.9,1.9,40.1-21.8,39.4-40.7c-0.8-21.6-18.5-40.1-39.6-40c-22.6,0.2-41.5,19.1-41.3,41.5C422.5,504.9,441.6,522.8,463.8,522.6z
			 M171.2,522.8c23.5,1.4,40.7-22.2,40.5-40.5c-0.2-21-19.5-40.1-40.9-40c-21.4,0.2-39.8,18.9-39.8,40.3
			C131.3,504.5,149.6,522.8,171.2,522.8z M427.1,255.5c0.4-12.5-0.4-24.9-1.9-37.3c-1.5-12-4.6-23.2-11.8-33.2
			c-10.2-14.5-32-16-43.2-3.1c-6,6.9-7.7,15.6-8.7,24.5c-2.1,19.5-3.1,39.2-2.9,58.9c0,7.1,1.5,8.9,8.5,10.2
			c5.2,1,10.2,2.1,15.4,3.3c10.8,2.5,21,6.8,30.9,12c6.4,3.5,11.2,1.2,11.8-5.4C426,275.4,426.4,265.3,427.1,255.5z M414,439.2
			c0-7.5-1.5-13.3-4.8-18.7c-6.4-10.8-19.1-12.7-27.6-4.4c-10.6,10.6-10.6,32.4,0.2,43.2c7.3,7.3,17.8,7.1,24.7-0.6
			C411.9,452.9,414,445.8,414,439.2z M242.2,411.1c-6.8-0.4-11.8,2.7-15.1,7.9c-7.1,11.8-7.7,23.9-0.6,35.9
			c6.9,11.8,20.5,12.7,29,2.5c9.1-10.8,7.9-32-2.3-41.9C250.1,412.6,246.5,410.7,242.2,411.1z M334.1,497.5c1.4,0,2.9,0,4.2-0.2
			c9.8-0.8,18.3-9.3,18.5-18.1c0-3.1-0.6-5.6-4.1-6.2c-3.7-0.6-5.4,1.5-6.2,4.8c-2.3,9.1-13.7,13.1-21,7.3
			c-3.9-3.1-4.2-7.5-4.4-12.2c-0.2-3.9,2.9-3.5,4.6-4.8c2.9-2.5,4.8-5.6,3.9-9.5c-0.8-3.5-3.7-5-7.1-5.6c-3.7-0.8-7.3-0.6-11,0.2
			c-3.7,0.8-6.9,1.9-7.5,6.4c-0.6,4.1,1.5,7.1,4.8,9.3c4.2,2.7,5.2,6,3.7,11c-1.7,5.4-6.8,8.5-13.1,8.3c-6.4-0.4-11.4-4.4-12.4-10.4
			c-0.6-3.3-1.9-4.8-5.2-4.4s-4.2,2.5-4.4,5.4c-0.2,3.3,0.8,6.2,2.5,8.7c6.8,10.8,24.1,14.1,35.5,6.2c1.9-1.4,2.9-1.4,4.6,0
			C323.9,496.6,328.9,497.7,334.1,497.5z"/>
		<path id="XMLID_181_" class="st3" d="M286.2,806.6c-2.3-1-4.2-2.5-6-4.2c-3.1-3.1-5.6-2.9-8.7,0c-14.1,12.5-42.3,13.1-56.7,1.4
			c-3.5-2.9-6.2-6.2-7.7-10.4s-4.1-4.8-8.3-3.7c-14.5,4.1-28.8,2.9-41.5-5.6c-10.4-6.8-12.9-16.6-8.7-30.5
			c6.2-20.3,15.6-39,24.5-57.9c9.7-20.7,19.3-41.5,25.1-63.7c3.1-12.4,4.6-25.1,4.4-37.8c0-3.3,0-4.6,4.2-3.5
			c10.6,2.9,21.2,5.6,32.2,6.9c2.1,0.2,2.7,1,3.1,3.1c2.5,11.4,9.5,19.5,20.1,23.9c1.9,0.8,2.5,2.1,3.1,3.7
			c4.8,12.5,15.8,18.5,29,15.4c2.5-0.6,4.2-0.4,6.4,1.5c10,8.5,24.7,8.1,34.4-0.8c1.5-1.4,2.7-1.4,4.4-1
			c13.5,3.7,25.1-2.3,30.1-15.4c0.8-2.1,1.9-3.3,3.9-4.2c9.7-5.2,16.6-12.4,18.3-23.7c0.4-1.9,1.5-2.3,3.3-2.5
			c12-2.3,23.9-4.8,36.1-8.3c-0.2,9.3,0.4,18.1,1.5,27.2c2.1,16.8,7.9,32.6,14.1,48.3c10,25.7,23.2,49.8,33.6,75.3
			c2.7,6.8,5.4,13.5,6.6,20.7c1.7,9.5-1.4,17-9.1,22.4c-13.3,9.3-28,10.8-43.4,6.6c-3.5-1-5.8-1-7.5,2.9
			c-4.8,11.2-14.1,16.4-25.5,18.5c-15.1,2.7-29.1,1-40.9-9.7c-2.1-1.9-4.2-2.1-6.6,0.2c-1.2,1.2-2.7,2.1-4.1,3.1
			c-0.4,0.4-0.8,0.6-1.2,1l0,0c-1,0-1.7,0-1.5,1.4l0,0c-0.6-0.2-1,0-1.2,0.8l0,0c-0.4,0.2-0.8,0.6-1.2,0.8l0,0
			c-1.7-0.2-3.3,0.8-4.8,1.5c-8.9,3.5-17.8,5.6-27.6,4.4c-6-0.6-11.4-3.1-17.4-3.1l0,0c-0.4-1-1.2-1-1.9-1l0,0
			c-0.2-1.2-1.2-1.2-1.9-1l0,0c-0.2-1.2-1-1.2-1.9-1.2l0,0C288.9,806.7,287.8,806.2,286.2,806.6z"/>
		<path id="XMLID_180_" class="st4" d="M205.9,812c19.9,13.3,40.5,16,62,6.4c6-2.7,9.5-3.3,15.1,0.6c6.9,5,15.4,7.3,24.3,8.1
			c1.9,0.2,4.1,0.2,3.7,3.3c-1,7.9-1,16.2-3.1,23.9c-4.2,16.2-15.8,24.5-31.5,27.8c-33.6,6.9-55.2-13.5-65.4-42.1
			C207.7,831.1,206.3,821.8,205.9,812z"/>
		<path id="XMLID_179_" class="st4" d="M425.8,812.5c-1.4,12.9-3.7,25.1-9.1,36.5c-7.5,15.4-18.3,27.6-35.5,32.4
			c-13.1,3.7-26.1,2.3-38.2-4.1c-12.9-6.8-18.3-18.1-19.7-32c-0.6-5.8-1-11.4-1.5-17.4c4.4-0.8,9.1-1.4,13.5-2.5
			c7.3-1.9,14.1-5.2,20.3-9.8c1.2-1,1.9-1.5,3.5-0.4C378.1,828.6,407.3,826.2,425.8,812.5z"/>
		<path id="XMLID_178_" class="st5" d="M85.9,291.6c0-10.6,0.6-19.3,7.1-26.4c4.6-4.8,10.4-7.5,16.8-8.3c17-2.3,32.2,2.5,46.3,12
			c1.2,0.8,2.1,1.4,1.5,3.3c-1.4,4.2-1.5,8.5-1.2,12.9c0.2,2.7-1,2.7-3.1,2.3c-2.1-0.4-4.2-0.6-6.6-0.6c-3.3-0.2-5.2,1.7-5.6,4.8
			c-0.4,3.3,0.8,5.4,4.1,6.4c0.8,0.2,1.5,0.6,2.3,0.6c10.4-1.9,12.4,6,15.2,12.9c0.4,1,0.6,1.5-0.2,2.3c-11.2,11.4-23,22-38.4,27.2
			c-11.6,4.1-19.7,1.2-26.6-8.9C89.2,319.2,86.1,304.9,85.9,291.6z"/>
		<path id="XMLID_177_" class="st5" d="M297.1,287.9c0.2,3.5-0.4,10.4-2.3,17c-2.9,10.6-8.9,15.8-19.9,16.2
			c-16.2,0.8-30.3-5.6-44-13.3c-1.2-0.8-1.5-1.4-1-2.9c1.9-4.2,3.1-8.9,3.1-13.5c0-1.9,1.4-2.1,2.7-2.7c2.3-1.2,4.8-1.9,7.3-3.1
			c3.5-1.5,4.2-4.6,3.1-7.7c-1.2-3.1-4.4-4.6-7.3-3.1c-5.6,3.3-7.3,1.2-8.7-4.2c-0.8-3.1-2.3-6.2-4.8-8.3c-1.7-1.5-1.2-2.5,0.2-3.7
			c12.7-11.8,26.8-20.5,45-21.2c8.7-0.4,15.2,3.3,19.3,11.2C295.5,259.7,297.1,271.9,297.1,287.9z"/>
		<path id="XMLID_176_" class="st6" d="M191.1,592.1c0.4,29.5-9.8,56.4-21.8,82.6c-6,13.3-12.4,26.4-18.1,40c-1.4,3.1-2.5,3.1-5,1.5
			c-12.2-7.1-18.3-22.4-15.4-37.1c3.5-17,12-31.7,20.7-46.1c9.7-16.4,19.3-32.8,32.8-46.7c1.5-1.5,2.7-2.5,5.2-1.5
			c2.7,1,1.7,2.9,1.9,4.4C191.1,590.4,191.1,591.1,191.1,592.1z"/>
		<path id="XMLID_175_" class="st6" d="M482.9,716.6c-12.4-27.6-26.1-54.2-34.5-83c-4.6-15.6-5.8-31.8-6.2-49
			c4.8,3.1,7.9,6.9,10.8,10.8c16,21.8,30.7,44.6,41.1,69.7c4.1,9.7,6.9,19.7,4.2,30.3C496,704.6,491,711.4,482.9,716.6z"/>
		<path id="XMLID_174_" class="st5" d="M190.7,311.7c-2.7,0-5.4,0.4-7.9,0c-6.8-1.2-10.6-6.2-12.4-15.6c-1-5.6-1-11.2-1.2-16.8
			c0-4.1,1.5-6.9,5-8.7c10.4-5.6,21.6-7.7,33.4-5.4c6,1.2,9.8,5.6,11.2,11.8c1.4,6,1.7,12,1.2,18.1c-0.8,6.9-4.2,11.8-11.2,14.1
			C203.1,310.9,197.1,312.2,190.7,311.7z"/>
		<path id="XMLID_173_" class="st7" d="M253.4,599.6c9.7,1,18.5,2.5,27.8,2.5c2.9,0,4.2,1.2,5.6,3.7c6.6,12.4,17.4,18.1,31.3,18.1
			c13.7,0,24.1-6.2,30.7-18.1c1.5-2.7,2.9-3.7,6-3.9c8.3-0.4,16.6-1.5,25.3-2.3c-2.3,6.9-6.8,11.6-13.1,14.1
			c-4.1,1.5-6.2,3.9-7.1,8.1c-2.5,9.8-10.8,13.5-20.1,9.3c-6.6-3.1-6.6-3.1-10.6,2.9c-5.6,8.1-18.3,7.7-23.7-0.8
			c-3.1-4.8-4.1-5.2-9.3-2.5c-10.2,5.2-18.9,1.4-21.6-9.8c-0.8-3.3-2.3-5.2-5.8-6.4C261.1,612.4,255.4,607.9,253.4,599.6z"/>
		<path id="XMLID_172_" class="st8" d="M253.8,227.3C242,230.4,232,237,222,244.5c-0.2-15.1,1-29.5,5.6-43.4
			c1.5-4.8,4.4-8.9,8.3-12.2c6-5,12.7-4.6,18.1,1.2c-0.8,1.5,0.2,1.5,1.2,1.7l0,0c0.2,3.7,1.9,6.9,2.7,10.6c1.4,7.3,1.4,14.7,2.5,22
			v-0.2C258.3,225.6,255.2,224.6,253.8,227.3z"/>
		<path id="XMLID_171_" class="st9" d="M337.2,603.1c-9.5,12-27.4,12.2-39.4,0c7.1,0,13.3,0,19.7,0S330.4,603.1,337.2,603.1z"/>
		<path id="XMLID_170_" class="st10" d="M294.9,811.2c6,0,11.4,2.3,17.4,3.1c9.8,1.2,18.7-1,27.6-4.4c1.5-0.6,3.1-1.7,4.8-1.5
			C328.5,817.7,311.9,818.1,294.9,811.2z"/>
		<path id="XMLID_169_" class="st11" d="M253.8,227.3c1.4-2.7,4.4-1.5,6.4-2.9v0.2c-1.2-7.3-1.2-14.7-2.5-22
			c-0.6-3.7-2.5-6.9-2.7-10.6c4.6,6.4,4.2,14.1,5.4,21.2c0.2,1.5,0,3.1,0.2,4.6C261.7,225.4,261.7,225.4,253.8,227.3z"/>
		<path id="XMLID_168_" class="st10" d="M286.2,806.6c1.5-0.2,2.7,0.2,3.1,1.9C288,808.3,287,807.3,286.2,806.6z"/>
		<path id="XMLID_167_" class="st11" d="M255.2,191.8c-1,0-2.1-0.2-1.2-1.7C254.2,190.6,254.6,191.2,255.2,191.8z"/>
		<path id="XMLID_166_" class="st10" d="M346.8,806.7c-0.2-1.2,0.8-1.4,1.5-1.4C348,805.8,347.4,806.4,346.8,806.7z"/>
		<path id="XMLID_165_" class="st10" d="M289.1,808.3c1,0,1.7,0,1.9,1.2C290.3,809.3,289.5,809.3,289.1,808.3z"/>
		<path id="XMLID_164_" class="st10" d="M291.1,809.4c1-0.2,1.7-0.2,1.9,1C292.4,810,291.6,809.6,291.1,809.4z"/>
		<path id="XMLID_163_" class="st10" d="M293,810.2c1-0.2,1.7-0.2,1.9,1C294.2,811,293.4,811.2,293,810.2z"/>
		<path id="XMLID_162_" class="st10" d="M348.4,805.4c0.4-0.4,0.8-0.6,1.2-1C349.2,804.8,348.8,805.2,348.4,805.4z"/>
		<path id="XMLID_161_" class="st10" d="M345.7,807.3c0.2-0.6,0.6-1,1.2-0.8C346.5,806.9,346.1,807.1,345.7,807.3z"/>
		<path id="XMLID_160_" class="st10" d="M344.7,808.1c0.4-0.2,0.8-0.6,1.2-0.8C345.3,807.5,345.1,807.9,344.7,808.1z"/>
		<path id="XMLID_151_" class="st4" d="M744.8,619.1c-22,0.4-45.4-1.7-67.9-9.5c-17.2-5.8-32.6-14.5-42.8-30.3s-13.3-33.4-11.6-51.9
			c2.9-30.1,17.6-53.7,39-73.9c3.5-3.3,5.4-7.3,5.4-12.4c-0.2-17.2,0-34.4,2.7-51.1c2.3-14.1,5.8-27.8,14.3-39.8
			c11.4-15.6,31.8-16.2,41.9,1.5c6.6,11.6,9.7,24.3,12,37.3c2.7,14.5,3.5,29,2.9,43.6c-0.2,6.2,1.7,8.5,6.4,8.7
			c4.8,0.2,6.6-2.3,6.8-8.5c0.4-20.8,1.4-41.7,6.6-62c2.1-7.9,4.6-15.6,9.7-22.4c9.3-12.2,23.7-13.5,35.3-3.3
			c9.3,8.3,13.7,19.3,16.8,30.9c5.2,20.8,6,42.1,5.6,63.5c-0.2,6,1.9,10,6.2,14.1c20.3,19.1,34.9,41.7,38.6,69.7
			c5.2,40.5-11.8,72-54.4,86.3C797.7,616.4,775.9,619.1,744.8,619.1z M659.3,581.7c11.8,0,20.8-5.8,24.3-15.4
			c5.6-15.6-6.4-30.7-24.1-30.5c-13.3,0.2-24.7,11-24.5,23.7C635,572,645.6,581.7,659.3,581.7z M834.6,581.7
			c14.5,0,25.3-9.8,25.3-23c0-12.9-10.4-23-23.7-23.2c-14.5-0.2-26.1,10.2-26.1,23.2C810.1,571.7,820.7,581.7,834.6,581.7z
			 M719.2,422.6c0.4-5.2,0-11.4-1.9-17.2c-1.5-4.6-4.2-8.3-9.7-8.9c-4.8-0.6-9.5,3.3-12,10c-4.1,10.6-4.1,21.8-3.7,33
			c0,3.1,2.3,4.6,5.4,4.2c5.4-0.4,10.6-1.4,16-2.5c3.3-0.6,4.6-2.1,5-5.4C719.2,431.7,719.2,427.7,719.2,422.6z M802.6,432.3
			c0-10-0.6-18.7-3.9-27c-2.3-5.8-6.8-8.7-11.6-8.3c-4.6,0.4-8.1,3.9-9.8,9.8c-1.9,6.9-2.1,14.1-1.9,21.2
			c0.2,12.4,1.5,13.7,13.7,15.1c0.2,0,0.4,0,0.4,0C803.1,445.6,802.9,442.9,802.6,432.3z M747.5,541.2c-3.1,0.8-7.1,0-8.7,4.1
			c-1,2.7,0,5.6,2.7,6.8c3.7,1.5,3.1,3.5,2.1,6.6c-1.2,3.9-3.3,5.4-6.8,5.6c-3.5,0.2-6.8-0.8-7.5-5c-0.6-2.5-1.9-4.2-4.8-3.7
			c-2.9,0.6-3.3,2.9-3.1,5.4c1,8.1,9.3,14.5,17.2,11.8c6-1.9,11-1.7,16.8,0c7.7,2.3,16.6-4.1,17.4-11.4c0.4-2.7,0-5.2-3.1-6
			c-2.9-0.6-3.9,1.5-4.6,4.1c-1.7,4.8-8.5,6.4-12.4,3.3c-2.5-2.1-3.3-8.9-1-10.2c3.3-1.7,5-4.2,3.9-7.5
			C754.5,541.5,750.8,541.7,747.5,541.2z M714.9,535.4c-0.2-1.2,0-3.5-0.6-5.6c-1.5-5.4-4.1-10.6-10.2-12c-5-1-9.3,1-12,5.2
			c-4.2,6.9-4.8,14.1-1.2,21.6c2.3,4.4,6,7.3,11,7.3c5,0,8.7-2.7,11-7.3C714.3,542.1,714.5,539.2,714.9,535.4z M780.2,534.8
			c-0.4,4.1,0.6,7.7,2.7,11.2c4.8,7.9,14.7,8.3,20.1,1c4.8-6.6,4.4-18.3-1-24.7c-5.6-6.8-14.5-6-19.1,1.5
			C780.9,527.3,779.8,530.7,780.2,534.8z"/>
		<path id="XMLID_150_" class="st5" d="M848.5,723.6c-22.2,5.6-44.6,9.1-67.2,10.8c-15.6,1.2-31.5,2.3-47.1,1.5
			c-28.6-1.2-56.9-4.2-84.7-11.6c-2.9-0.8-3.1-1.7-2.3-4.2c10.4-31.3,20.8-62.5,31.3-94c0.8-2.5,1.9-3.1,4.4-2.1
			c2.5,1,5,1.9,7.5,1.9c9.1,0.2,14.1,5,17.2,13.1c2.5,6.4,6.2,12.2,9.3,18.1c3.1,5.8,7.3,6.2,11.6,1.2c6-6.8,12-13.5,18-20.5
			c0.4-0.4,1-0.8,1.4-1.2c6.6,7.3,12.9,14.9,19.7,22c4.1,4.4,7.9,4.1,10.8-1.4c4.6-8.7,9.3-17.6,13.7-26.4c1.2-2.3,2.9-3.5,5.2-3.9
			c4.8-1,9.8-1.7,14.5-2.9c3.3-1,4.4,0,5.4,3.1c7.5,23.2,15.2,46.1,22.8,69.3C842.9,705.6,845.6,714.3,848.5,723.6z"/>
		<path id="XMLID_149_" class="st7" d="M807.8,742.3c-1,11.4-5.2,20.3-14.9,25.7c-6.4,3.7-13.1,4.6-20.1,2.3
			c-8.7-2.7-14.9-12-14.1-21.4c0.2-1.5,0.6-1.7,1.9-1.9C776.1,746.3,791.7,744.4,807.8,742.3z"/>
		<path id="XMLID_148_" class="st7" d="M715.3,771.6c-14.1-0.6-25.3-10.6-27.8-26.8c-0.2-1.7,0.4-2.3,2.1-1.9
			c14.7,2.9,29.5,3.3,44.4,4.2c1.9,0.2,2.7,0.4,2.7,2.5C736.5,762.7,728.1,771.6,715.3,771.6z"/>
		<path id="XMLID_147_" class="st7" d="M827.1,619.3c6.6,4.4,11.4,10.6,16.2,16.6c8.1,10.4,15.4,21.2,17.6,34.7
			c1.7,10.6-0.6,16.8-9.7,24.5C843.1,669.7,835,644.4,827.1,619.3z"/>
		<path id="XMLID_146_" class="st7" d="M643.9,694.8c-8.9-5.8-12.4-15.8-9.3-27.2c3.9-14.3,12.2-26.3,21.6-37.4
			c3.3-4.1,6.6-8.3,11.8-10.8C659.9,644.4,651.8,669.7,643.9,694.8z"/>
		<path id="XMLID_145_" class="st9" d="M781.5,630.1c-3.7,6.6-6.9,12.4-10.4,18.5c-4.8-5.8-9.3-11.2-14.5-17.6
			C765.3,631.7,773,630.5,781.5,630.1z"/>
		<path id="XMLID_144_" class="st9" d="M724,648.7c-3.3-6.2-6.4-12-9.7-18.3c8.1-0.8,15.4,1.5,24.1,0.6
			C733.3,637.1,728.8,642.7,724,648.7z"/>
		<path id="XMLID_143_" class="st12" d="M463.8,522.6c-22.2,0.2-41.3-18-41.3-39c-0.2-22.4,18.7-41.3,41.3-41.5
			c21-0.2,38.6,18.3,39.6,40C504,500.8,487.7,524.6,463.8,522.6z"/>
		<path id="XMLID_142_" class="st12" d="M171.2,522.8c-21.8,0.2-40.1-18.1-40.1-40.1c0-21.4,18.3-40.3,39.8-40.3
			c21.2-0.2,40.7,18.9,40.9,40C211.9,500.6,194.8,524,171.2,522.8z"/>
		<path id="XMLID_139_" class="st1" d="M427.1,255.5c-0.6,10-1.2,19.9-1.9,29.9c-0.6,6.6-5.2,8.9-11.8,5.4
			c-9.8-5.4-20.1-9.5-30.9-12c-5-1.2-10.2-2.3-15.4-3.3c-6.9-1.4-8.5-3.1-8.5-10.2c-0.2-19.7,1-39.2,2.9-58.9
			c1-8.9,2.7-17.6,8.7-24.5c11.2-13.1,33-11.4,43.2,3.1c6.9,10,10.2,21.4,11.8,33.2C426.8,230.6,427.5,242.9,427.1,255.5z
			 M402.8,192.8c-0.4-0.4-0.8-0.8-1-1.2l0.2,0.2c-0.4-0.4-0.8-0.8-1.2-1.2c-9.3-8.9-20.8-5.8-24.5,6.4c-1.9,6.4-2.1,12.7-2.7,19.3
			c-0.6,10.2-1.2,20.7-1.9,30.9c0,0.4,0,0.6,0,1c0,1,0,1.7,0,2.7c0,3.9,0,7.5,0,11.4c-0.2,0.8-0.2,1.7,0.8,1.7
			c6.8,0.6,12.9,2.9,19.5,4.1h-0.2c1.7,1.2,3.7,1.5,5.8,1.9l0,0c2.3,1.5,5,2.1,7.5,2.9h-0.2c0.4,1,1.4,0.8,2.1,1
			c1,0.6,2.1,1.2,3.1,1.7c2.9,1.9,2.5-0.2,2.3-1.9c0.4-10.2,1.5-20.5,1-30.7c-0.4-7.7-0.8-15.4-1.7-23c-0.8-6.6-1.2-13.5-4.4-19.5
			l0,0c-0.2-1.5-0.8-2.9-1.9-3.9l0,0c-0.2-0.4-0.4-0.8-0.6-1.2v-0.2c-0.4-0.4-1-1-1.4-1.4l0,0C403.4,193.5,403.2,193.2,402.8,192.8
			L402.8,192.8z"/>
		<path id="XMLID_138_" class="st13" d="M414,439.2c0,6.6-2.1,13.5-7.3,19.3c-6.9,7.7-17.4,7.9-24.7,0.6
			c-10.8-10.8-11-32.6-0.2-43.2c8.3-8.3,21-6.4,27.6,4.4C412.5,425.9,414,431.9,414,439.2z"/>
		<path id="XMLID_137_" class="st13" d="M242.2,411.1c4.2-0.4,7.9,1.5,11,4.6c10.2,9.8,11.4,31.1,2.3,41.9
			c-8.5,10.2-22.2,9.3-29-2.5c-6.9-12-6.6-24.1,0.6-35.9C230.5,413.8,235.5,410.7,242.2,411.1z"/>
		<path id="XMLID_136_" class="st1" d="M334.1,497.5c-5.2,0.2-10.2-1-14.5-4.1c-1.7-1.4-2.5-1.4-4.6,0c-11.4,7.9-28.8,4.6-35.5-6.2
			c-1.7-2.7-2.5-5.6-2.5-8.7c0.2-3.1,1-5.2,4.4-5.4c3.3-0.2,4.6,1.4,5.2,4.4c1.2,6.2,6.2,10.2,12.4,10.4c6.4,0.4,11.4-2.9,13.1-8.3
			c1.5-5,0.6-8.5-3.7-11c-3.5-2.1-5.4-5.2-4.8-9.3c0.6-4.2,3.9-5.6,7.5-6.4c3.7-0.8,7.3-0.8,11-0.2c3.5,0.6,6.4,2.1,7.1,5.6
			c1,3.9-1,6.9-3.9,9.5c-1.7,1.4-4.8,1.2-4.6,4.8c0.4,4.6,0.6,9.1,4.4,12.2c7.3,5.8,18.7,1.7,21-7.3c0.8-3.3,2.7-5.4,6.2-4.8
			c3.5,0.6,4.1,3.1,4.1,6.2c-0.2,8.9-8.7,17.4-18.5,18.1C336.8,497.3,335.5,497.3,334.1,497.5z"/>
		<path id="XMLID_135_" class="st1" d="M260.2,224.4L260.2,224.4L260.2,224.4z"/>
		<path id="XMLID_134_" class="st14" d="M659.3,581.7c-13.7,0-24.3-9.7-24.5-22.4c-0.2-12.5,11.2-23.5,24.5-23.7
			c18-0.2,29.7,14.9,24.1,30.5C680.2,575.9,671.1,581.7,659.3,581.7z"/>
		<path id="XMLID_133_" class="st14" d="M834.6,581.7c-13.9,0-24.5-10-24.3-23c0-12.9,11.8-23.2,26.1-23.2
			c13.3,0.2,23.7,10.2,23.7,23.2C859.9,571.8,848.9,581.9,834.6,581.7z"/>
		<path id="XMLID_132_" class="st13" d="M719.2,422.6c0,5,0,9.3-0.6,13.3c-0.4,3.3-1.7,4.8-5,5.4c-5.4,1-10.6,1.9-16,2.5
			c-3.1,0.2-5.4-1.2-5.4-4.2c-0.4-11.2-0.4-22.4,3.7-33c2.5-6.6,7.1-10.4,12-10c5.4,0.6,8.1,4.2,9.7,8.9
			C719.2,411.3,719.6,417.2,719.2,422.6z"/>
		<path id="XMLID_131_" class="st13" d="M802.6,432.3c0.4,10.6,0.6,13.3-13.1,10.8c-0.2,0-0.4,0-0.4,0c-12.2-1.4-13.5-2.9-13.7-15.1
			c-0.2-7.1-0.2-14.3,1.9-21.2c1.7-6,5.2-9.5,9.8-9.8c4.8-0.4,9.3,2.5,11.6,8.3C802.2,413.4,802.6,422.3,802.6,432.3z"/>
		<path id="XMLID_130_" class="st1" d="M747.5,541.2c3.1,0.6,6.8,0.2,7.9,3.9c1.2,3.3-0.6,5.8-3.9,7.5c-2.5,1.4-1.7,8.1,1,10.2
			c3.9,3.1,10.6,1.4,12.4-3.3c1-2.3,1.9-4.6,4.6-4.1c3.1,0.6,3.3,3.1,3.1,6c-0.8,7.3-9.7,13.7-17.4,11.4c-5.8-1.7-10.8-1.9-16.8,0
			c-7.9,2.5-16.2-3.9-17.2-11.8c-0.4-2.5,0-4.8,3.1-5.4c2.9-0.8,4.4,1.2,4.8,3.7c0.8,4.4,4.1,5.2,7.5,5c3.5-0.2,5.8-1.7,6.8-5.6
			c1-3.1,1.5-5-2.1-6.6c-2.7-1.2-3.7-4.1-2.7-6.8C740.6,541.2,744.5,541.9,747.5,541.2z"/>
		<path id="XMLID_129_" class="st1" d="M714.9,535.4c-0.4,3.9-0.6,6.8-1.9,9.5c-2.3,4.6-6,7.3-11,7.3c-5,0-8.7-2.9-11-7.3
			c-3.7-7.3-3.1-14.7,1.2-21.6c2.7-4.4,6.9-6.4,12-5.2c6.4,1.4,8.7,6.4,10.2,12C714.9,531.9,714.7,534.2,714.9,535.4z"/>
		<path id="XMLID_128_" class="st13" d="M780.2,534.8c-0.4-4.1,1-7.5,2.9-11c4.4-7.5,13.3-8.3,19.1-1.5c5.4,6.4,5.8,18.1,1,24.7
			c-5.4,7.3-15.2,6.8-20.1-1C780.7,542.5,779.8,538.8,780.2,534.8z"/>
		<path id="XMLID_127_" class="st15" d="M412.9,273.4c0.2,1.7,0.6,3.9-2.3,1.9c-1-0.6-2.1-1.2-3.1-1.7c-0.4-1-1.2-1.2-2.1-1h0.2
			c-1.9-2.5-4.4-3.3-7.5-2.9l0,0c-1.4-2.3-3.5-2.1-5.8-1.9h0.2c-0.8-1.7-2.3-1.9-3.9-2.1c-5.6-1.2-11-2.5-16.6-3.7
			c0-3.9,0-7.5,0-11.4c1-1,1-1.7,0-2.7c0-0.4,0-0.6,0-1c1.9-0.4,1.7-1.9,1.7-3.3c0.2-6.2-0.2-12.4,0.8-18.5c0.4-2.9,1-6.2-0.6-9.1
			c0.6-6.6,0.8-12.9,2.7-19.3c3.7-12.2,15.2-15.1,24.5-6.4c0.4,0.4,0.8,0.8,1.2,1.2l-0.2-0.2c0.4,0.4,0.8,0.8,1,1.2l-0.2-0.2
			c0.4,0.4,0.6,0.8,1,1.2l0,0c0,1,0,1.7,1.4,1.4v0.2c-0.4,0.6,0,1,0.6,1.2l0,0c-0.2,1.7-0.2,3.3,1.9,3.9l0,0c0,1.2,0,2.5,0.2,3.7
			c3.1,11.6,4.1,23.4,4.2,35.3c0.2,9.8,0,19.5,0,29.3C412.1,270.2,411.5,271.9,412.9,273.4z"/>
		<path id="XMLID_126_" class="st11" d="M412.9,273.4c-1.4-1.5-0.8-3.3-0.8-4.8c0-9.8,0-19.5,0-29.3c-0.2-12-1.2-23.7-4.2-35.3
			c-0.4-1.2-0.2-2.5-0.2-3.7c3.5,6,3.7,12.9,4.4,19.5c1,7.5,1.4,15.2,1.7,23C414.4,253,413.2,263.2,412.9,273.4z"/>
		<path id="XMLID_125_" class="st11" d="M373.9,216.3c1.5,2.9,1.2,6.2,0.6,9.1c-1,6.2-0.6,12.4-0.8,18.5c0,1.4,0.4,2.9-1.7,3.3
			C372.5,237,373.3,226.7,373.9,216.3z"/>
		<path id="XMLID_124_" class="st11" d="M371.9,262.2c5.6,1.2,11,2.5,16.6,3.7c1.5,0.4,3.1,0.6,3.9,2.1c-6.6-1.2-12.9-3.5-19.5-4.1
			C371.7,264,371.7,263,371.9,262.2z"/>
		<path id="XMLID_123_" class="st11" d="M397.8,269.8c3.1-0.4,5.6,0.4,7.5,2.9C402.8,272.1,400.1,271.3,397.8,269.8z"/>
		<path id="XMLID_122_" class="st11" d="M392.2,268c2.1-0.2,4.4-0.4,5.8,1.9C395.9,269.6,393.9,269,392.2,268z"/>
		<path id="XMLID_121_" class="st11" d="M407.6,200.3c-2.1-0.6-2.1-2.1-1.9-3.9C406.9,197.4,407.5,198.7,407.6,200.3z"/>
		<path id="XMLID_120_" class="st11" d="M371.9,248.2c1,1,1,1.9,0,2.7C371.9,250.1,371.9,249.1,371.9,248.2z"/>
		<path id="XMLID_119_" class="st11" d="M405.1,195.1c-1.4,0.4-1.4-0.6-1.4-1.4C404.2,194.1,404.6,194.7,405.1,195.1z"/>
		<path id="XMLID_118_" class="st11" d="M405.3,272.7c1-0.2,1.7,0,2.1,1C406.7,273.4,405.7,273.6,405.3,272.7z"/>
		<path id="XMLID_117_" class="st11" d="M405.7,196.6c-0.6-0.2-1-0.6-0.6-1.2C405.3,195.9,405.5,196.2,405.7,196.6z"/>
		<path id="XMLID_116_" class="st11" d="M402.1,191.8c-0.4-0.4-0.8-0.8-1.2-1.2C401.3,191.2,401.7,191.4,402.1,191.8z"/>
		<path id="XMLID_115_" class="st11" d="M403.8,193.7c-0.4-0.4-0.6-0.8-1-1.2C403.2,193.2,403.4,193.5,403.8,193.7z"/>
		<path id="XMLID_114_" class="st11" d="M402.8,192.8c-0.4-0.4-0.8-0.8-1-1.2C402.2,192.2,402.6,192.6,402.8,192.8z"/>



</svg>
